<?xml version="1.0" standalone="no"?>
<svg xmlns:xlink="http://www.w3.org/1999/xlink" id="wave" style="transform:rotate(0deg); transition: 0.3s" viewBox="0 0 1440 490" version="1.1" xmlns="http://www.w3.org/2000/svg"><defs><linearGradient id="sw-gradient-0" x1="0" x2="0" y1="1" y2="0"><stop stop-color="rgba(185, 56, 128, 0.5)" offset="0%"/><stop stop-color="rgba(185, 56, 128, 0.5)" offset="100%"/></linearGradient></defs><path style="transform:translate(0, 0px); opacity:1" fill="url(#sw-gradient-0)" d="M0,441L40,441C80,441,160,441,240,416.5C320,392,400,343,480,294C560,245,640,196,720,220.5C800,245,880,343,960,343C1040,343,1120,245,1200,212.3C1280,180,1360,212,1440,212.3C1520,212,1600,180,1680,196C1760,212,1840,278,1920,277.7C2000,278,2080,212,2160,212.3C2240,212,2320,278,2400,310.3C2480,343,2560,343,2640,294C2720,245,2800,147,2880,106.2C2960,65,3040,82,3120,138.8C3200,196,3280,294,3360,294C3440,294,3520,196,3600,147C3680,98,3760,98,3840,114.3C3920,131,4000,163,4080,212.3C4160,261,4240,327,4320,351.2C4400,376,4480,359,4560,351.2C4640,343,4720,343,4800,334.8C4880,327,4960,310,5040,302.2C5120,294,5200,294,5280,253.2C5360,212,5440,131,5520,106.2C5600,82,5680,114,5720,130.7L5760,147L5760,490L5720,490C5680,490,5600,490,5520,490C5440,490,5360,490,5280,490C5200,490,5120,490,5040,490C4960,490,4880,490,4800,490C4720,490,4640,490,4560,490C4480,490,4400,490,4320,490C4240,490,4160,490,4080,490C4000,490,3920,490,3840,490C3760,490,3680,490,3600,490C3520,490,3440,490,3360,490C3280,490,3200,490,3120,490C3040,490,2960,490,2880,490C2800,490,2720,490,2640,490C2560,490,2480,490,2400,490C2320,490,2240,490,2160,490C2080,490,2000,490,1920,490C1840,490,1760,490,1680,490C1600,490,1520,490,1440,490C1360,490,1280,490,1200,490C1120,490,1040,490,960,490C880,490,800,490,720,490C640,490,560,490,480,490C400,490,320,490,240,490C160,490,80,490,40,490L0,490Z"/><defs><linearGradient id="sw-gradient-1" x1="0" x2="0" y1="1" y2="0"><stop stop-color="rgba(185, 56, 128, 0.7)" offset="0%"/><stop stop-color="rgba(185, 56, 128, 0.7)" offset="100%"/></linearGradient></defs><path style="transform:translate(0, 50px); opacity:0.9" fill="url(#sw-gradient-1)" d="M0,147L40,187.8C80,229,160,310,240,334.8C320,359,400,327,480,302.2C560,278,640,261,720,269.5C800,278,880,310,960,269.5C1040,229,1120,114,1200,81.7C1280,49,1360,98,1440,163.3C1520,229,1600,310,1680,343C1760,376,1840,359,1920,294C2000,229,2080,114,2160,89.8C2240,65,2320,131,2400,130.7C2480,131,2560,65,2640,106.2C2720,147,2800,294,2880,294C2960,294,3040,147,3120,130.7C3200,114,3280,229,3360,294C3440,359,3520,376,3600,367.5C3680,359,3760,327,3840,334.8C3920,343,4000,392,4080,383.8C4160,376,4240,310,4320,245C4400,180,4480,114,4560,147C4640,180,4720,310,4800,367.5C4880,425,4960,408,5040,343C5120,278,5200,163,5280,98C5360,33,5440,16,5520,24.5C5600,33,5680,65,5720,81.7L5760,98L5760,490L5720,490C5680,490,5600,490,5520,490C5440,490,5360,490,5280,490C5200,490,5120,490,5040,490C4960,490,4880,490,4800,490C4720,490,4640,490,4560,490C4480,490,4400,490,4320,490C4240,490,4160,490,4080,490C4000,490,3920,490,3840,490C3760,490,3680,490,3600,490C3520,490,3440,490,3360,490C3280,490,3200,490,3120,490C3040,490,2960,490,2880,490C2800,490,2720,490,2640,490C2560,490,2480,490,2400,490C2320,490,2240,490,2160,490C2080,490,2000,490,1920,490C1840,490,1760,490,1680,490C1600,490,1520,490,1440,490C1360,490,1280,490,1200,490C1120,490,1040,490,960,490C880,490,800,490,720,490C640,490,560,490,480,490C400,490,320,490,240,490C160,490,80,490,40,490L0,490Z"/><defs><linearGradient id="sw-gradient-2" x1="0" x2="0" y1="1" y2="0"><stop stop-color="rgba(185, 56, 128, 0.9)" offset="0%"/><stop stop-color="rgba(185, 56, 128, 0.9)" offset="100%"/></linearGradient></defs><path style="transform:translate(0, 100px); opacity:0.8" fill="url(#sw-gradient-2)" d="M0,147L40,179.7C80,212,160,278,240,261.3C320,245,400,147,480,106.2C560,65,640,82,720,122.5C800,163,880,229,960,261.3C1040,294,1120,294,1200,245C1280,196,1360,98,1440,114.3C1520,131,1600,261,1680,326.7C1760,392,1840,392,1920,400.2C2000,408,2080,425,2160,383.8C2240,343,2320,245,2400,187.8C2480,131,2560,114,2640,155.2C2720,196,2800,294,2880,294C2960,294,3040,196,3120,147C3200,98,3280,98,3360,89.8C3440,82,3520,65,3600,122.5C3680,180,3760,310,3840,359.3C3920,408,4000,376,4080,367.5C4160,359,4240,376,4320,351.2C4400,327,4480,261,4560,196C4640,131,4720,65,4800,98C4880,131,4960,261,5040,318.5C5120,376,5200,359,5280,359.3C5360,359,5440,376,5520,351.2C5600,327,5680,261,5720,228.7L5760,196L5760,490L5720,490C5680,490,5600,490,5520,490C5440,490,5360,490,5280,490C5200,490,5120,490,5040,490C4960,490,4880,490,4800,490C4720,490,4640,490,4560,490C4480,490,4400,490,4320,490C4240,490,4160,490,4080,490C4000,490,3920,490,3840,490C3760,490,3680,490,3600,490C3520,490,3440,490,3360,490C3280,490,3200,490,3120,490C3040,490,2960,490,2880,490C2800,490,2720,490,2640,490C2560,490,2480,490,2400,490C2320,490,2240,490,2160,490C2080,490,2000,490,1920,490C1840,490,1760,490,1680,490C1600,490,1520,490,1440,490C1360,490,1280,490,1200,490C1120,490,1040,490,960,490C880,490,800,490,720,490C640,490,560,490,480,490C400,490,320,490,240,490C160,490,80,490,40,490L0,490Z"/></svg>